<svg xmlns="http://www.w3.org/2000/svg" width="512" height="512" viewBox="0 0 512 512">
  <defs>
    <linearGradient id="g" x1="0" x2="1" y1="0" y2="1">
      <stop offset="0" stop-color="#22c55e"/>
      <stop offset="1" stop-color="#fbbf24"/>
    </linearGradient>
  </defs>
  <rect x="32" y="32" width="448" height="448" rx="120" fill="url(#g)"/>
  <g fill="#111">
    <path d="M152 314c0-44 36-80 80-80h48c44 0 80 36 80 80v22c0 13-11 24-24 24H176c-13 0-24-11-24-24v-22z" opacity=".92"/>
    <path d="M182 206c0-41 33-74 74-74s74 33 74 74-33 74-74 74-74-33-74-74z"/>
    <path d="M206 214h100v16H206z" fill="#fbbf24" opacity=".0"/>
  </g>
  <text x="256" y="426" text-anchor="middle" font-family="Tahoma, Arial, sans-serif" font-size="40" font-weight="700" fill="#111">AYED</text>
</svg>
