<svg xmlns="http://www.w3.org/2000/svg" width="512" height="512" viewBox="0 0 512 512">
  <defs>
    <linearGradient id="g" x1="0" x2="1" y1="0" y2="1">
      <stop offset="0" stop-color="#22c55e"/>
      <stop offset="1" stop-color="#fbbf24"/>
    </linearGradient>
  </defs>
  <rect x="0" y="0" width="512" height="512" rx="160" fill="url(#g)"/>
  <g fill="#111" transform="translate(0,10)">
    <path d="M156 314c0-44 36-80 80-80h40c44 0 80 36 80 80v22c0 13-11 24-24 24H180c-13 0-24-11-24-24v-22z" opacity=".92"/>
    <path d="M186 206c0-39 31-70 70-70s70 31 70 70-31 70-70 70-70-31-70-70z"/>
  </g>
  <text x="256" y="430" text-anchor="middle" font-family="Tahoma, Arial, sans-serif" font-size="38" font-weight="800" fill="#111">AYED</text>
</svg>
